<mxfile host="app.diagrams.net" modified="2022-07-19T06:05:19.533Z" agent="5.0 (Macintosh; Intel Mac OS X 10_15_7) AppleWebKit/537.36 (KHTML, like Gecko) Chrome/103.0.5060.114 Safari/537.36 Edg/103.0.1264.62" etag="MJMdh3KUAZvIvsLD-Edr" version="20.1.1" type="github">
  <diagram id="C5RBs43oDa-KdzZeNtuy" name="Page-1">
    <mxGraphModel dx="1298" dy="841" grid="1" gridSize="10" guides="1" tooltips="1" connect="1" arrows="1" fold="1" page="1" pageScale="1" pageWidth="827" pageHeight="1169" math="0" shadow="0">
      <root>
        <mxCell id="WIyWlLk6GJQsqaUBKTNV-0" />
        <mxCell id="WIyWlLk6GJQsqaUBKTNV-1" parent="WIyWlLk6GJQsqaUBKTNV-0" />
        <mxCell id="WIyWlLk6GJQsqaUBKTNV-2" value="" style="rounded=0;html=1;jettySize=auto;orthogonalLoop=1;fontSize=11;endArrow=block;endFill=0;endSize=8;strokeWidth=1;shadow=0;labelBackgroundColor=none;edgeStyle=orthogonalEdgeStyle;" parent="WIyWlLk6GJQsqaUBKTNV-1" source="WIyWlLk6GJQsqaUBKTNV-3" target="WIyWlLk6GJQsqaUBKTNV-6" edge="1">
          <mxGeometry relative="1" as="geometry" />
        </mxCell>
        <mxCell id="WIyWlLk6GJQsqaUBKTNV-3" value="Lamp doesn&#39;t work" style="rounded=1;whiteSpace=wrap;html=1;fontSize=12;glass=0;strokeWidth=1;shadow=0;" parent="WIyWlLk6GJQsqaUBKTNV-1" vertex="1">
          <mxGeometry x="160" y="80" width="120" height="40" as="geometry" />
        </mxCell>
        <mxCell id="WIyWlLk6GJQsqaUBKTNV-4" value="Yes" style="rounded=0;html=1;jettySize=auto;orthogonalLoop=1;fontSize=11;endArrow=block;endFill=0;endSize=8;strokeWidth=1;shadow=0;labelBackgroundColor=none;edgeStyle=orthogonalEdgeStyle;" parent="WIyWlLk6GJQsqaUBKTNV-1" source="WIyWlLk6GJQsqaUBKTNV-6" target="WIyWlLk6GJQsqaUBKTNV-10" edge="1">
          <mxGeometry y="20" relative="1" as="geometry">
            <mxPoint as="offset" />
          </mxGeometry>
        </mxCell>
        <mxCell id="WIyWlLk6GJQsqaUBKTNV-5" value="No" style="edgeStyle=orthogonalEdgeStyle;rounded=0;html=1;jettySize=auto;orthogonalLoop=1;fontSize=11;endArrow=block;endFill=0;endSize=8;strokeWidth=1;shadow=0;labelBackgroundColor=none;" parent="WIyWlLk6GJQsqaUBKTNV-1" source="WIyWlLk6GJQsqaUBKTNV-6" target="WIyWlLk6GJQsqaUBKTNV-7" edge="1">
          <mxGeometry y="10" relative="1" as="geometry">
            <mxPoint as="offset" />
          </mxGeometry>
        </mxCell>
        <mxCell id="WIyWlLk6GJQsqaUBKTNV-6" value="Lamp&lt;br&gt;plugged in?" style="rhombus;whiteSpace=wrap;html=1;shadow=0;fontFamily=Helvetica;fontSize=12;align=center;strokeWidth=1;spacing=6;spacingTop=-4;" parent="WIyWlLk6GJQsqaUBKTNV-1" vertex="1">
          <mxGeometry x="170" y="170" width="100" height="80" as="geometry" />
        </mxCell>
        <mxCell id="WIyWlLk6GJQsqaUBKTNV-7" value="Plug in lamp" style="rounded=1;whiteSpace=wrap;html=1;fontSize=12;glass=0;strokeWidth=1;shadow=0;" parent="WIyWlLk6GJQsqaUBKTNV-1" vertex="1">
          <mxGeometry x="320" y="190" width="120" height="40" as="geometry" />
        </mxCell>
        <mxCell id="WIyWlLk6GJQsqaUBKTNV-8" value="No" style="rounded=0;html=1;jettySize=auto;orthogonalLoop=1;fontSize=11;endArrow=block;endFill=0;endSize=8;strokeWidth=1;shadow=0;labelBackgroundColor=none;edgeStyle=orthogonalEdgeStyle;" parent="WIyWlLk6GJQsqaUBKTNV-1" source="WIyWlLk6GJQsqaUBKTNV-10" target="WIyWlLk6GJQsqaUBKTNV-11" edge="1">
          <mxGeometry x="0.3333" y="20" relative="1" as="geometry">
            <mxPoint as="offset" />
          </mxGeometry>
        </mxCell>
        <mxCell id="WIyWlLk6GJQsqaUBKTNV-9" value="Yes" style="edgeStyle=orthogonalEdgeStyle;rounded=0;html=1;jettySize=auto;orthogonalLoop=1;fontSize=11;endArrow=block;endFill=0;endSize=8;strokeWidth=1;shadow=0;labelBackgroundColor=none;" parent="WIyWlLk6GJQsqaUBKTNV-1" source="WIyWlLk6GJQsqaUBKTNV-10" target="WIyWlLk6GJQsqaUBKTNV-12" edge="1">
          <mxGeometry y="10" relative="1" as="geometry">
            <mxPoint as="offset" />
          </mxGeometry>
        </mxCell>
        <mxCell id="WIyWlLk6GJQsqaUBKTNV-10" value="Bulb&lt;br&gt;burned out?" style="rhombus;whiteSpace=wrap;html=1;shadow=0;fontFamily=Helvetica;fontSize=12;align=center;strokeWidth=1;spacing=6;spacingTop=-4;" parent="WIyWlLk6GJQsqaUBKTNV-1" vertex="1">
          <mxGeometry x="170" y="290" width="100" height="80" as="geometry" />
        </mxCell>
        <mxCell id="WIyWlLk6GJQsqaUBKTNV-11" value="Repair Lamp" style="rounded=1;whiteSpace=wrap;html=1;fontSize=12;glass=0;strokeWidth=1;shadow=0;" parent="WIyWlLk6GJQsqaUBKTNV-1" vertex="1">
          <mxGeometry x="160" y="430" width="120" height="40" as="geometry" />
        </mxCell>
        <mxCell id="WIyWlLk6GJQsqaUBKTNV-12" value="Replace Bulb" style="rounded=1;whiteSpace=wrap;html=1;fontSize=12;glass=0;strokeWidth=1;shadow=0;" parent="WIyWlLk6GJQsqaUBKTNV-1" vertex="1">
          <mxGeometry x="320" y="310" width="120" height="40" as="geometry" />
        </mxCell>
        <mxCell id="N3WS-AlwFbJby_XCKeYA-0" value="data:application/pdf;base64,JVBERi0xLjQKMSAwIG9iago8PAovVGl0bGUgKP7/KQovQ3JlYXRvciAo/v8AdwBrAGgAdABtAGwAdABvAHAAZABmACAAMAAuADEAMgAuADYpCi9Qcm9kdWNlciAo/v8AUQB0ACAANAAuADgALgA3KQovQ3JlYXRpb25EYXRlIChEOjIwMjIwNzE0MTk0ODAzKzA4JzAwJykKPj4KZW5kb2JqCjMgMCBvYmoKPDwKL1R5cGUgL0V4dEdTdGF0ZQovU0EgdHJ1ZQovU00gMC4wMgovY2EgMS4wCi9DQSAxLjAKL0FJUyBmYWxzZQovU01hc2sgL05vbmU+PgplbmRvYmoKNCAwIG9iagpbL1BhdHRlcm4gL0RldmljZVJHQl0KZW5kb2JqCjggMCBvYmoKPDwKL1R5cGUgL0NhdGFsb2cKL1BhZ2VzIDIgMCBSCj4+CmVuZG9iago1IDAgb2JqCjw8Ci9UeXBlIC9QYWdlCi9QYXJlbnQgMiAwIFIKL0NvbnRlbnRzIDkgMCBSCi9SZXNvdXJjZXMgMTEgMCBSCi9Bbm5vdHMgMTIgMCBSCi9NZWRpYUJveCBbMCAwIDY2MyAxNDg1XQo+PgplbmRvYmoKMTEgMCBvYmoKPDwKL0NvbG9yU3BhY2UgPDwKL1BDU3AgNCAwIFIKL0NTcCAvRGV2aWNlUkdCCi9DU3BnIC9EZXZpY2VHcmF5Cj4+Ci9FeHRHU3RhdGUgPDwKL0dTYSAzIDAgUgo+PgovUGF0dGVybiA8PAo+PgovRm9udCA8PAovRjYgNiAwIFIKL0Y3IDcgMCBSCj4+Ci9YT2JqZWN0IDw8Cj4+Cj4+CmVuZG9iagoxMiAwIG9iagpbIF0KZW5kb2JqCjkgMCBvYmoKPDwKL0xlbmd0aCAxMCAwIFIKL0ZpbHRlciAvRmxhdGVEZWNvZGUKPj4Kc3RyZWFtCnic7V1Nz+M4cr77V/gc4OWSxW8gCDDT0xMghwCLGSCHIIfAi0mwsBdZ5JC/nyrKNoui2JYl+bX8Wj3YbftpuVgsivVBFot/+uff/nP/X/+7/9O33/5nfzj//e23nRTeyu7Pnv774AAEcf68V8a67sv+cNr9ff/33Z93f8b/v/xNvz3tggyCnlGAX4/8q4rSpM+AuOx/pYf/e/dv/7D/2/IEO0I+dP+sVPo39lUFowVkQuXXHmdf5X8PG7pt+Lbhe+DwXdSXSv/97+Fvuz91im1nlBJe45+w10oKa6xxGps2zgrpnPOW48edCSCCMcYCxzlqz6jZcxoZPRRtZvy401GLaK11iuMcZS0O8n3Abv+ReixF6FRwkh3+x77rGIShz0XfUD9LoaKTKGaNP2p8/u3bv+5g/39I8l/wf3/d//t/4F9/2SknXPpzfgW0IOa0DWkwlLTC0h+PX9kXK/fsSfx24IQs/fTj/LDVhgD+FUnxVqnzv+06e0RcSuQSkEvIXF7egzEd5W/JWMEMNPn3yY3+/PvuT7+6vdL73//Yd6P40f31+2mn4WpjP7QUurO++9//sv9HGuR/2v/+1x0J+wxAH9AJCBkwCXD9n3z/HV+nH8r01tuWhuY0jwZ7Y5WyItArC6Ootmf+ME2c+f6Me44fC9yrDtdp1mY6LZzTuXOG9vo7fYZ2E1NJeZ6Rcu9l0pbnvzql+TYTCML+A7QI5cSx/XniEhAz4PtA9ZPQn1px5Ez6OsJVXDvFvpB/6ovw5wSYffuJSurf+j+paPxyk0a8SeN7Xym+31BCRJtr+0NYyfLX/ktfyfK2TVLrtDhArpaMMtjlLA6jWVgchhcWB5zvcFdalibO6dxpcXr93SzOghZHVTNpszjLWByDlkb1hVvpnPulrWQCFNNkle+8GZIxI2SzT2D8pxiUalyqkes7CUoNOwnvNFCAX9wEz/i2cOHmZFurCyBFBy8YdDKapQuQ8cIF8E5cOCtMfQsv6NzrApT93VyApaYWi4uq4FPp/vToh0G1dqrmXKUDG1HPWyk0NRSFfqpv8FbihqGIsVpfrIRp+kA1H6p3ueECfI79mKEWrQn76FAz0geloogUbwVUhgkwSoAKKgVvv3W8Ftx9lKwaA53ixhGRRkRvrIkzFfda93OG+3oqcOWEQjxtHxhtbuKZzrFBn20nPWEkps/TprR0WEgqf3zC66m4UJJnojobyj8X/obZ2+496nkZc+fD60/EcWpvNewuuA/86H4/STU8tluPNIBAi2Fo5vzFEAI6aR7wv3g2hOCUkNpp7+42hPgSiAARRf1FX+jhvhaGEBQI2eGFam/imc6xQX+CIVxwJBYxhKW0siGcKZX7DOE0obyiIVzrRNwM4fMN4aKq4XUNodZWODRzFs6GUKPdMzwi1DjQNtnK+w1hjMI5a2z4oi/0cF8LQ0hZbqHDC9XewhmdY4P+FEO43EgsYwgLaWVDOFMqdxrCSUJ5SUO40om4GcIVGMIlVcMTDeGt5tm+EpjzR333lpo8J/3in0K3DVM/7bRS6RVAN4Phx52+fDNocc9c2hKnUD39A22uMfotvKA/ZtNtvkSImo4YTLvQ/FxsQQ5Ko5BSSxol3pDq43r9elskvpULEdP+32DWdrWZp/e93SW23dTtmSj2iK2Q+hlXIb5CQoXECvmpQn6ukG/DWQEMqHJjqid+7VM9b7xV+aD5N6ovTNUX5nl7iVOtJKUqaapKdqqWXX+YVCVMVQlT/dRnuJOl/QHwrSLyy5fdbWxOJVmkGvemVDVhqqH5fv+kW+0rXbPab1f106oqAGT/LeszBv1d14oxgH7voJ5s9bQZo8yq6Qf1ryrKUNGBmk79q2rWQjVroVKBdb/g57eblM6nFIByMkKlruCX2yM+8Ew9dtU7e1v7V8a2P1Xg+63XfIRmqOZwnw+oFIGWFaL6zPenpIY+85XUdDUDdTVzdCV97d7u3eUGxau7DUoFaD+cpPIjf6HSM7rWRc9553WtAqcp+9qbHOGn6krd6srj1JWa0fVk+H6bQ13NTFPNTKMqpJKGqaRRK7nzM281zVw8z7P9R/B9U1G7R9XLXPlLlY/1baRQPyOZGKwXXulg3N6AE6CMk3PPExU0ozBEk/bSC9wLCAo8Bto2CB+kRaEyDsBJEWu+dlobYQn3HMeoXzvhjKfcNIZrfW7R8xYL9Mof0c64j0J2+LHAgxIK/9GYPW8xQNei23P+MnrY8f5k/Ljjvc84l1RukaOZv0ND3iNXPJrjP2cpjraw5V51J+hRfPwj/Ssdio8Uhhx3MaRVM6+6I/jlryQ9fEj52c6dE7Vd/gH7rZeUuOiJsOmSuBkdT712vCFHciPib5XmrX6Y5n3zFMSIgyzV8dcJieBjz898RavUGrk4lCleHa+rhF3F+7d/Ug1pX/rntacfHAeoj0RVKezvN4Kgh7LPH5nsvw4HQ4eABhEkalyr0DhJMHIc1R+cVmI0AYTraJ5KXArjosSIXwf06HzwWnMOdFRo+Cq+dsYZoYOiLS+GHxF3SBvtruW4cZ4SIKgeDmvxghKNzB/RzrgHYgrfokQ7U/EG2VJGxj1v0Vvhu6c5fxlF54X1J+PovLDeZ5xLKrdYoFf+Dg15jzy91Rz/hzsYRgTtvA62czRQxlIbJclXR8+B/s044L88o/QLcjvYVxwKHFsbXehclsuPMVhQ2qFzF/eMvpfXpxkTDO2cFEaycFauuOT0JWfiDZ0XJ66F/D40CCUjxWZNvXnzXM/0M2psQWTCwbftJNYO/P7DhN4Q1nas8jRqcTfqr6zE9EXACWstqt5ocYYrreP9WQX9g7qZZnBCGxcsmT4DQUi0Izbytsi0aOHAR9Q/7Pkjf15JwB8EqWU6qDtEf+xB3VZ/Z6l6LXxUAWQqSWKE8c5qFZNOR9sSrZZOR/7YkT8WyLRqZ84JVsVjb6Q9PdOeBo2KdWD7q8dMJ1UufQX09Ws9WV2faONUPQP8mmZvdlwcGBGBjsYs57g6nICqo3kqcStixPcVuOPKOGCOHueLO64MLxxXhjOXk7XIHFTGX+G4Ok+K2xrQpePqghSgMbyx3HF1AfVA9zTnL6OF48rwwnFlOJdUbpGjmb9DQ953O6698d8c181xnVhcoXJcl1h1u6TxqIycd7HkO3uZWg54mZNqJVTrWZ/pZc5QN1ZbIW0g38eDFB6AytOeCtzirEVlGSgPmeMetYIDFc3Ikx34ZpM/ifSdMvgxov/1RTO0h/t6KnC0qdDh5Gubm3imc2zQH32y4yEjMeNkR0ta5whkvlTGnOyYK5TXOdmx/om4nex41smOB6mGFZ/sYF58UF7I6MH7O6M4erARxQU0q9DRLKK4oNDxcDrlCeQ4hnHAoh7OF4/iGF5EcQxn8RdrkUVrjL8iigvorIOHaF0ZxQVPZ38wVvI8ikPmheme5vxltIjiGF5EcQznksotFuiVv0ND3ndHcb3x36K4LYq7J3fC7z/QM3lA9LbtIUyKqi1Gd/KBewjmraVLifKuHztPuL6jyh6piuetqrRqthZeoyK0Xum43JovWkHhOpqnElfCYgxO+YPZXjIOmHXlfHFvgeGFt8BwZudZi8wrYPwV3oIPiGtAF6P0Fnywwjt0JYtkBR8cGp30NOcvo4W3wPDCW2A4l1RusUCv/B0a8r7bW+iN/+YtbN7Cnfl6VY5CpT4ryzO27Ldp05ixnvneFi8OrRbfTn4cvRj/SqvFwQIqVOV9b7U4BBDa0uZxuVocZcTQTml//2qxV6TyvVJfddVnuK/FajHZGt/hxfpnE890jg36E1aLFxyJRVaLS2nl1eKZUrlvtXiaUF5xtXitE3FbLX7+avGiquFFC+Ixa0dV74yMtmcdcV4DxgwOYmkdlVQeNZZy8m7riAGaAOUhzl2zXOtbPtzXwjrSuq3p8ELfN/FM59igP8E6LjgSi1jHUlrZOs6Uyn3WcZpQXtE6rnUibtbx+dZxUdXw8tYRI2i6dFyp0LOOykhhokoJmAUeLJpTNSF2jERRa8pc/Zpv+XBfC+tImfauwwt938QznWOD/gTruOBILGIdS2ll6zhTKvdZx2lCeUXruNaJuFnH51vHRVXDi1rHIIXVJnq9V4CSiVpb2gL0RgnvNF24wvAjx2Pwgs7mRsWsYynsQgQ2UAEQGUzY+0ilPSCs7YaDxd7y4b6eCjzQtmTC0emI/iae6Rwb9Avr+OkjMd06NqUV9UJS+eMTXs91WcfXnoibdXykdXyCanhyHm47B8aGqy6JxgkFSqfa3jbGAfxY4DaIeMUZnRbO6YzJ+Rizq/p629yt8naUEgNdCZoPhb8XMu3mnsv9mV6mwDmZYP7WNZUeMVJroGtFHQ6ug6BmJlYVND0Il2ieejh6XhCNRw5SQkqMlnNgfRCu5mvnME6kG99AcvyIuKZsZWmL552l8+b0PG/xikrOH9HOOFA5FU3v7XHHqQCGpt6rAHveIoAVIT3N+cvoYcf7k3GcIKz3GeeSyi2W6IW/Q0Pe4yZZe/zn6KMtsertEqt4FRgMLF2ZrnO76EuV6XS7LMzttK0ROUA18tOK8l6LKR/ws7Z08mLWKZmSJqqlRPPUw2k8AXShnjMHhTrLfBXqOeOles54oVivLRZq+MpfqZ61RlwpMD31rPHV88ZYX6hnnPYipKc5fxkt1XPGS/WccS6p3GKBXvk7NOR9v3oux39Tz5t6vqfMzINKHDxXs79VHuxQba4FT368kyydbcty9enAngome7AGe2cpaow+5ZoUOBVLRxVLdobjaOOwAZO2ekds6TqFsbwOkn4K3giLf1Z2G+Fii0/DfT2VOJ1ySTi6HUrexq90jg36Y7d0HzMS06dXW1pmIamM2NKdLZR1LVq/9kTcFq2ftKX7KNWw4uIR1kehraNDjcpEugwEIMxetcw0rabaBzadsrloNFC8LQo7pbAqgvH8+WPxPJLDkC2CTKHkEP2xYWCrv7PCwK2A5wK+pBos3FldeVcdr64KI1fA7QsYGhfrPalw50I+LRWKBGfSPhTHPeo2E2KaNBwP+FnhlJrg05rghImgv6ptGu5r6dOSPnEJL720Jn6lc2zQn+LTLjcSy/i0pbTMQlK506edJJSX9GlXOhE3n3YFPu2SquE10xQDKiDUPJJczaissJI2ME67SFemOnTBCvxY4M6AkBDT0bcACpWXjKqHd1bzoy+MAnAOaVqMLwz6QQqVIOjZVZfX+voP9/WUdppUhR9LXMaMczotnNG5zr5nDMUMuzlKXHqGWP74jBd0TYbz5efiZjkfZzmfox1Wm8PoLcaLaNXQlCmjItVHgbQfQqUqK/xY4rQQc8E5nRbO6Gw5jP2lEErxDJb21BD0wYsoHdhPzWGU3gswAeZeCFLQDFSKnWiWSTIoHqHRL4MiSSZzwJNKGF9FkkzGyySZjPP0ltwiT4bJ/JVJMooqpUF33VCRCYkvt7UeXJEko3Sy0FEXSTIZLZNkMl4myWS8yCy8tliiF/4ODXnfnyRTjv+s1dEtSebdkmQwzMrX8E4oKduvElc/UWXLTL7r7p3SNXSZW9pL26hEOKFY3+0spmpcqp9UxfuqCoA3L956x7Flc64qbLu6fN0ZFoVXVgC0Ur6+8wX9dSWcgXTnC9/iaOIGBLar4f6tD4mqXrsAKyub8pCtj9zXcutDprt0QvLm+WJ+E7/SOTboT9n6WG4kltn6KKVlFpLKnVsfk4SyphWcV5+I2wLOCrY+llQNq12/sYqK86Xbx5Ukg6ZM0j0WwgB+LHFrhb/gnE4LZ3S29Zu+L+Z0FOc0lo+0dlicQe3np5zd6uzOwveRntiM94x7PwZnioQYZS9RxGA3DEQVe96SoYU8CDpveY2eiAp/anEezr01ea1ab7ivpbdEx0N9wkv738SvdI4N+lO8peVGYhlvqZSWWUgqd3pLk4Tykt7SSifi5i2twFtaUjWsOfnZXusCGaACl8bJ2dsdnCaV+ECa6Uwwx72AoMADckCbCd6iQmAcWOuEq/lCr0LiF8Qjx1H7aRDaoBF3HHf63GLkLRbolT+inXEf0V9J+LHAgxJ0/40xe95igK5Ft+f8ZfSw4/3JOPqTrPcZ55LKLXI083doyHvkdkdz/B++3eHS3I/oUuEfr+hflCx/JWXa2KC/HfUofcg/YL/1co8EvTxvVfS3KPbF7xK1N9yS0JZtSWgRfFciZu4B3ndaYY5s9wAjg54IF7jkb7vcbqGRAvayYwBfjpT8qS+xasOlAqp9nuqJasvue29b5zyU699eIHOAr7cKKkAq4ZUskUVTZaVON756QLMEVICrhVu0RcoFUCM3FLSk6+J0MH5vlEXtbayfW55ira7ucF9PBY7m2Hb4cQdR38QznWOD/tgQ+TEjMX2et6QFqazeElIZESLPFsrLhMgvMBG3EPlJIfKjVMNrnqW4bSdZkecWfq+dZCV71zo9F3vfh/t6KnCu+VnN1SbONf8w/bF28jEjMaP4c1NaeiGpjLCTs4XyMnbyBSbiZiefZCcfpRpWvJSszl631tMz5+lBrtEKmixzvmzrkseuohE+SCuLXHjstYg1XzugslZBAxR59hg9eHJxHG1WMxwwsPX4NAqPtXhBEw2WOc9xnjnPqeQ8dt5iznnn/PHMed4fnjnPe59xLqncYonmzPlheY9bSm6P/8OXkrfM+a+0cscz5+v71avKJu7mamj1k9Bflq1q+/bX9upF2G9buvWjq0hW1WrWUUe5UJ6o0GWU3szcMy1pWjojmApGlbgWynojC0OXOSgMQ+arMHQZLw1dxgsTdW2xMGhX/kpDRyXnwTmjeoYOwAsdY6KdWwTKvEtPc/4yWhq6jJeGLuNcUrnFEr3wd2jI+35DV47/Zug2QzexzH11RGzE4a3+qaF673DEHtX9h8ZaR6DeyfSpOHB6bLrXwH7yS/9MUj2G1QhVLtAbDsiPjn7VPkm17X77OF1/y7ga3BGTDV5j/xeiEtZJh2q5SIwucKOEJGOeNtwY7vAzHSYbt5oNOkWKVqc7YxQlT/mVlR9ZbFVquK+nEkeHwiQcxQrxNn6lc2zQH7ua/ZiRmD7d29LSC0llxGr2bKG8zGr2C0zEbTX7SavZj1INK17NDt0+t/Z0WQ4t5ntn760K3V/N5jS1lMIlmqdd2VYQ1mgw+wBdlJtKcV85wNcnxcQ+FnztUr46/UOBYxjmsB3jlS+o0CD669OXFjma+UPaHLdSwJU2x6kKdaRVeNaipvTirkXGX0YPO96fjFN5wdz7jBcSvLZYohf+Dg15jwvy2+P/8CB/S4z+9ODB7j+06ueIbivNqxkg8Dm6M74/UC+/4rxQqGa1o4VU2Q/VqNaWVyYVNVc2JehC+AFO56DAWD8yhFNgO10J55v3onNf1RUb7uupxCktNeEoVuVv41c6xwb9sSHcY0Zi+pxuS0stJJURIdxsobxMCPcCE3EL4Z4Uwj1KNaw4hMOYgm6BTZGNpS57/DJzn7akGYVPNE893AunXZR7HSRVOYpRcQ40xTb0rC342hmqtI5uuHIcPyJO3g/+V/SDClBYfBo/shYvKFVlz/wR7YxTZQ5vbFSJdqbi6E5aH7ELvEWq7R7T05y/jB52vD8ZP+547zPOJZVbLNArf4eGvMeFcO3x3/Zpt33ae+67/eE+7e1yjzfvbxrYuL19/fgWOI67qrgu8tk/lllvpFeirAeoOg5anbmdUI71diT7fkO47ezOcXxc1CI4HeLMteuSphcy0Tz1cCpZJK0tHJ/MQeEoZL4KxyfjpeOT8cJlubZYODhX/krHxxvEdbS+5/h4unLPQ3KfcoueVpLT05y/jJaOT8ZLxyfjXFK5xRK98HdoyPt+x6cc/83x2RyfLRP76w3UF83EnqGvLNAVsjiNzR5QnQsXQHeFQBkeqEaIS6t0HFcKP0NM5fNGrH8b/KnUXipaOkeTEIMO6ouuYw339VTiqIBVwtHMKtvh/gf4lc6xQX/s+vdjRmL6nG1KS8WFpDJi/Xu2UF5m/fsFJuK2/v2k9e9HqYaVr39ftIkPWjiLf81d/46AoZDU6GQwmnTju8VQSLtQtIWay2lhgjLOcJyjaJcvKKOR0UPRZsap1hS6pxEs2mmGczS3OMz3YXQ4NSzH6QOrXEq6oT2YNFV1F4zYkCaNkuiY0J8u9+f6BblnT1qZcrOuhCz99OP8MN0HYmnFJH9FUrzVwztFMtqxSEYKXSaQ3Lx8Sb2g16tCwM/Rup7Xi26vuJSbKXCwIjpjR1Y05wrV02k/r/xXtV7DfS29XtIMMeGlH9fEr3SODfpTvN7lRmIZr7eQlooLSeVOr3eSUF7S613pRNy83hV4vUuqhjV7vegugYZ4SYSHENzszQ9GkxLJTaJ52pVtBaHRz7LIgRMQIxXSZhxofBFNzddOU4FvCVorjtMmAr5U2qYETkYF30JNT/uixQuqOH9Em+GWFrlNV6WVUaE0ehu9p2yV3CKl3Lv0NOcvo0ib9SfjVGQz955R4RLMLRbohb9DQ94jNz+a479tfmybHxNzzuusjwdufrzTxoUCltgv1725/9ZZGLTDNCL74o12mMadvIjXHSajpUBlaqlsTAunkxcYWwQ3LgbXBkN8590lqdfI4Fe24L2YLz3c11OJo010CUc/BNXJTfxK59igP7pk+kNGYkbJ9Ka0zEJSGVMyfa5QXiYGf4GJuMXgT4rBH6UaVhyDq2iFsso4ii/xs42g1OwKeZwmLW0TzVMPd8LZ4H2qhQcqKG04BypFzBVfqRKepHSQyHGqYkf174yKxfPgjaBVdGd5ixe0o3Hhj2hn3HSvQtq94lQMxr4RBUcFZXOLxioR09Ocv4xSFbvcn4wfd7z3GeeSyi0W6JW/Q0PeYyvktcZ/i8G3GPye8HAo8bCOGKoYb8JFXDcPXNTHOEz/J9u1Wxj9sID+dkZitSZSnaapovPq6q4XKapWnLCPIIKxaVuM4x7jQk+VdshAoEuudewywxn+2231i24Smoyk6GjTDX8dv6p7N9zXzi0wFX4scfAZ53RaOKMzyrt8zEDMOI8/RliUEjBZKCN8g7kyWVVQ+NqzcIsJHxgTPkEvPDEknEG3WACNWsggDfn6HOcGUBsntHfShSHD+NHvdAFAwMhEYiQVuEb7mm/5cF9PKaqNFX4scabVCzotnNG5TrJnDMWMeqOjxKVniOWPz3hB12QeX34ubgbycQbyOdrhNU0ku1bZSVRBLoDpTl9nHIfZBO91OjAUQEgjpYslfjt21J5KyYB0am/x7bBRqji3aMpa3/LhvqJUAy329fFjgVvFcEanhXM6oybZYwZixo7iGGH5OUIZcxJjpkzWZBxffBZupvE5seOj9MJrGkZ2j3JhGDnODaBFbSW98wGGDOOPXRLj6a4pZTRwjfY13/LhvmJM7ryACj8WONfqnE4L53RGxo6PGYoZR15GiIsbx/vFMiZ2nC2VNZnHl5+Lm4F8Vuz4KO2w4owba7UI3ikk7+k+X+uVvvfUSz/jpqBJx54TzVOJo3hBB+mQAyMiRuoxcA6s9WRv+3ztHKQan/hbjh93LpXhD8FJjqO/Q9VDLUTe4hXVnD+kzXA6rq0hqJBoZyrBonuArwjRzi0GR6EMPc35y+hhx/uTcfQrWO8zziWVWyzQK3+HhrzHRUbt8Z/zQm4ZN2+XcQPyRyW/qsqZVXbGrzcLek3IzameeL+8mqECX3VV0ro4WiXtKs+pkbT0o0tEqzSemxVuz82uPkmHxY1RAV1waFKW6RZPznMKt3hyiye3eHKLJ7d4ch3x5Ay6VlshbUAXfK/Ae+GBikudClwrJZyBQIPJz0M2cboewkk94dJgJCC0C+C/6Os/3Nfy0mCJw2ATXl6D28SvdI4N+lMuDV5uJJa5NLiUll5IKndeGjxJKGuym68+ETez+cB9ymeohte0mh40PmRj0Dj4iupOe5BlZT6GH0vcR+HQ1k6ozGe9FS5KWNlN3svFlYN9LSvz0d1PIeFlrbkmfqVzbNCfUplvuZFYpjJfIS1WmW+eVO6szDdJKC9jHV9gIm7W8UnW8VGq4cl7lO3dROPoTLhxkW7jA4cjZrvK0VRfrsKPJa4DduOMczotnNEZs3s2ZlH59bYSfGMrwQYpTKqAjGAE2V2nfV6oN/0TuecdhLz5At9HLuXPeM8gaqGtd9HhHEYjhI5TKl/D8ahwkIPrtl8LL6qBb17U5kVtXtTmRW1e1OZFrdmLun08YIy/8pRX/JZ7uLJOffJEmCMdKsFk6LPdayWFNejqjrvM/BM5U2jpArEGa+MMlBJeRhns6jhL9ja9VGvgjLED5vxxHe8ZWC+80sE4VPtU38xQjfE1cEZH4KwC6dzeog9oJODYroOzCAIDYyqhEK0SWlFBoXVwlmXm8EWLEL1Z3WgG5YWMHrxfG2d3Jnk/mjPyvYzUGtAPUw6ngIMwruDjZ3JGZ8qNttathLMotHU+UgHI6IX2AOOuZ/tMmdFmOZgA65iblOZulAwmrM0GqKiTdaJiNeuSGedMeUCFJr1ZBWdBdYz58xUnxju7jhnAb1CnpRxL17yvjrPybvc1cDbtusmHczb5SqDHz82phZI/Q9NOO1C2TIy/urWCbQFkWwC5ydm2ALItgGwLINsCyLYA8mjOtgWQbQFkWwBZkQ3YFkC2BZBtAWRbANkWQLYFkM8Qzg8f2v959//wL4CsCmVuZHN0cmVhbQplbmRvYmoKMTAgMCBvYmoKODAxMgplbmRvYmoKMTMgMCBvYmoKPDwgL1R5cGUgL0ZvbnREZXNjcmlwdG9yCi9Gb250TmFtZSAvUU5BQUFBK01pY3Jvc29mdFlhSGVpLUJvbGQKL0ZsYWdzIDQgCi9Gb250QkJveCBbLTExMy4yODEyNTAgLTI2MS43MTg3NTAgMTMzNS45Mzc1MCAxMDU4LjEwNTQ2IF0KL0l0YWxpY0FuZ2xlIDAgCi9Bc2NlbnQgMTA1OC4xMDU0NiAKL0Rlc2NlbnQgLTI2MS43MTg3NTAgCi9DYXBIZWlnaHQgMTA1OC4xMDU0NiAKL1N0ZW1WIDU4LjEwNTQ2ODcgCi9Gb250RmlsZTIgMTQgMCBSCj4+CmVuZG9iagoxNCAwIG9iago8PAovTGVuZ3RoMSA3MDY4IAovTGVuZ3RoIDE3IDAgUgovRmlsdGVyIC9GbGF0ZURlY29kZQo+PgpzdHJlYW0KeJytVwl0VOW9//73fnNnSUIyZBkiD5hJSCIUkjDJZAIIZg8JAbIRStgcMpNkzDJ5M5OEPFkUAZdEqAYqQjBiZTtWhIMFaSVqK6/1oRW1j2rf6UFasWrRyrGuZG7e//vunSGBtKHndObMvb/vu/99++4QIIToyL1EJGRJVZp125+FL3CnB393NTR31X868er7iK8Qov9To8vhdF0o8RJiOI97WY24EZml20BImA7XUxtb/Ou6owybcD0D1+uaPXWOpOOJGlw/g+v5LY51bcRCZuH6Q1ybWx0trpRj7x0jJJwSErmLCDRKeIloiE6zR5OBFCeVu1BE6oUdOo0QphUFgQoC3EuEB3SRd1QiTRz+yKIqs5ngd+hzaVPgO6LXdQoTCCVT2DNaKUUwbQSIQE7g+gPNR+itlpAMo8WYZDFaTtCZgz7h88B4zUff3/YUPYiUHUOXxZ/TFpJESHRchtWemZKckmzLtGfZrabY5MQErRQbY4pj31hJKyUmpHQc7P81HHirbNGW+3//+PbNexanpvXsWlQ6LQUefOjyC0/ANFdTWcad5Yu3/WTVCpgpl02cNGNRasbt0/ILlj27es1sgjp/MPShOFmzn0QTkiSl0Ghjoi3DlmTMiE00xqAJ4uTSXrkfTp6E3MHBHtvciGkA4BMMV79cKR+/KqceN6N/OUOX6SS020QS0fIstNccbbTYEpmJyTYhKSkTbQfJJJniMuLsWTbb0YUb19fCWyC/Sb3vP7lqDcB6SH/9v5+HlmMAM6YvWJubQyOn3xYPclrAuf+l2h/uhXm2aa+uky+aHrgzKRmKixqXoO29hIjV1EWi0BElPBhbS2wGi5dYPbe6NSdXPgP5dMnvZk8WZyZUV/cGrtDK83+CCOZ5BXr+NlodzzxPlNDSKHuWxWoyKqLQWHucXTzvvyDv7Tt8COJfWtm2edcPa6Fm6WP33TOtAPbu+Qrin3k6U/5rRW3tvt3LlgNUEcUqelhykfGEWCzGzERMlYnZZczIyjAb6WF54Oer7pgP3LJNv4d1QscQFC1oCzwsuQLFr8pzsPSYbdSNtsWQiSjSEmWx2mOlFHNKshFtzLBiASRlpqBgLXUH0mHa6R27/y5/82hvX9+VT7dtkd99vSonNxJ+Kw/VflYDu3ZCGOgOHdi+47vcbwDyC9qCVr6DVoYzKyFRMRAsQN+R18k/otw6WA73yfVCYuCPkuva5zAU+JrZ1iuLGgFtG49dRZLUiDObTFFaFkcxmOYoFkcTXOCyNn7ybmcHPNx98ZxbD7k59V0F+Z+1FhbD1sBGacmR13p3BeRPDx6C/eDsLF0Ia1Y9B+nV1VuYvg409zNpNYlkNRqN3ZChNkAK5gzrzNhhy6iqsmVCpq2yMtM2AfI0p0rSUyE1fUFpmhXAOuv7R2nltaPM6+14OY9ei0ofboc8yfXd3mA8jnKvWNaiQllj1WSOpkfll19dOU/N2ror4AHBDeGYN0/gIVp57H9AzmZSrFiRFdImEssqMiXBFMv6yMJ7SmljsSJ/ziEYHJTPnD59zz2/qc/TNMfDi+uvDvaLjqvbz/xnGzBWYkBrnqaVXA6ARUxOQYNEC8LoOBNaFE2flh+DJrn7QGI4HT/xsPwIdMhPQcczE2KpYeoRWhm4HHgdZt05NT1dfkNIFmbIv0yzJxTCPMVTbS16auGeJrMyYn2TybMVdJkFOctOjdpaeQBerJk9Wx44tdKWrfg/5641TR8v2/QVuIXOAEDZIk9gp7Dp65LSrsDjtPK51VmZcP48gJzPK/kyHeDdkMj0qUNBLWPMAeCQC042nDdZNjogD2jaL//ung093Zfeq9FAnvyr/EJnZ15Bbo7v7qLCvlNY0AJEHj7YJ+wcjGgrLVm1pn93ZdWymh5WLeWBb+kr6N1kkobViRVpkVKMcXYmOTSQFN02Rbek6mYVS195/ph88oMtzx77aZ1D0/6Xd9ZvhJ6HL71Rz6x4Na/A2ZlfmJfb2lJU+F/yG1ituRDjglUrDqw8s2vnNTAdOti/RZ7csmghrFh98LHKaqipfohlczN28z7M5ng1AinUiHGO4e4aLXSf/LJmwwV5I+T/8q65cyD3yFnM+bvC3sD93xbktwtdzCtZpAO8OhPZPDAqnkRH3ehJcMTaeRT9H7698V7o6f7gzbU8jHl59X5sOSjId7cV5YMsCk+ceuxHoIXYAwfQ8v9oWVwGK1Ye3FVZhZY/QNTsXUW9kWxKMnUWsynOKGBUcRZBVBI1RlkweRXP/ARiwPDkPnjqaflz+eq+fiiGcSDK1+4tLBamgrGv74m9siz/7an9e/fAOPkFdHApFCxbxqKDJzXtw+iEsVq3sAqP5RXeJzvkXrkdat+0aLXmt1gLY10v8JUtbhIG0LayoY/FPVIKnrdprNtsyXZ28iTzcjIqAylGy2akZIoxQaY6N2P4wZkMyRNgf11iAsAs65LT/QcvvLdhPcLN7vjbYKL8m2x7Rdlse6ZtwSp7NgzkFB15oDrbnleUNnM7ZDmdrhc9tSvuXp5uzcrKkC+UWNPTrSWl6dYMq3LWSyKe/To2rbC+MUIYLdHIks2NOyGYxNl/+Vjeee6Fv27bCtD9yEUpAgLj5Cfe/wMdGozs6f7io/vvQ0k4mTVfoiQtRh/rRsQvBkcdBZov5d3+wJteeY9ghy3CMaNWL8Uehzp5nxQxuFSIz6guuDPwZ4wue/fIQSka3u34pTmDPigV8qWIa/huMuQOfAt/59N10s3TFdD2lATWP3E4aDeMmLNQ2955qXRZyewjMMrEPSR/190DZiDsfSGCLmXnxtCHGiE4CZJi1RMRtRnVcyPYhey1h02E4Mlx5fy6jgcf+uC3bn1ujgvPjXnzvc1FxVu34nlZ8Bo82jtE5M8OH8ajY3lrSSk7OrZXLoGKik3ovRGzcQZrayKvLTHZpoxRPkUz7dHBu3RGfkV+7lmjVhdxSj4un4XS/QZJP+51sB7X6vTj+ljtCbvzisttASfWYMLMspJM4Q8By5QVmUXCRcKqmP8G52z7aE3kHV+xl9sbPyzS2lqJWSWFNpFH1xn4GN9NY4bWDq3V1nJJwz+TNTvJCfFL0iGWkx/QfpIrOkkvTSAVmul4P0wq6FnSK6zFWqnG+2rSgb/tmjTSK84nVnqUGLT/R3o1FUjPfmlkM7/nId+TRCOeI2XSUnJCovgyfBc5Idw95GZypPMscvj2sZi0kZ+Sc+QbiIdSaMBvP5yFd+ArIV4oFjYKJ0WCdblK3CE+K35NJ9L5dDG9n56hV9WYTCbpmHnV05s+VeKnIfxeCGnIhNBKCwbyRYi3Gb5XMZBIoV7FAqFCu4pFEoPzUsEU8SMq1pBwYb+KJRItPKdiLdkqvIJcQEWUM04sVDElqWIVxxrcN4j3qZiS6WI3xxLuS+LPVExJsvgLjrW4rxMvqZiS28VPONaxjqZGFVMyg07iWK/6rmDAiH2hYpRDS1QskttphYpRJu1SsRIrBUskme5XsRI3BevIdDJOxXpE21QcRoror1UcTrI1ESqOEHZrClU8jlRq/8ixgcVHl6ZijI9uHsdhuD9e16RiSqz4z4zhcGa/7nkVo826UxyPw/0o3UUVU5Ku+xvHUUyOfoqKUY5+FsfRLM76OhVjnPVujmOYPfodKkZ79Ps4jsX9GP05FVOSqVd0xTF6Q7SKkd5g4Tie0RuWqBjpDYquiSzvhsdVjHk3KLGdxPN+ScUs70p+p3D6cypm9P/L8VSWd8OQijHvYWEcz2T0YXYVI31YLsM6ijWgC2tScagGEItkfJhPxRTxVhWHagBxqAYQh/KOWE9iwh5XcSjviEN51w3Lr25YfnXD4qYbFrfwYfThw+jDh+U9PJj3I/g/2IqTIJ1kI1pE3KSOeImH+PBXT/y4l4/Ii7OGXR2440bUSlLxSS5pxq8Z992kgTTiMx9fufDuwnsHXp2cspxzB3kZ1Ui9Rbjfjk+cnO/fobOGr3wqp5lk4V46ahzNw+WoYwHSuxG7uTyG/ShdscahamjgT/18l2kxI2b2Matb8O4lTbjnCfGM/rT+X4ozs6iVy2LWmMlSXLm5DUx/FSIHX/m4ThbBNNUCzzAP6tT4+nncGHXqETO+G2WbF7nrvB6fp95vzvd42zxeh9/taU015zY3m73uhka/z+x1+VzeDpcz1Vzu8bKnPrPKW+Rpb3W6vGNzXley3LHA5c7zNDtv2Jo5yp6Z7dW4vD6Ua85KTbeGnv9jFrfP7HL7G9EoB6pvcPv8Lq/LafZ7HU5Xi8PbZPawJ8OW9aNHwOxuNaMY89JWtx/5q/wOv8tndrQ601CAhyuoQ+/9XrfLl4pHMSsOVhQsHWOV2EhqP2mHCEzNJ2PyXaes5+kfi16hKuJ6/GNSq3Tig+IZ8TXxZbweH4tnBG0eUjSPadXMW6Qz/xO60aQ1ch/byBws/zTSyb+p2HY38qbyVmhBGj/p4s3WwNutDSV0/QMp9SOGU1ACu7ciFbsu5xRm3uZdeG/nw0hpWmWg1PNm9vMmZes2LquFt3Kwmddy3mCjF2Krl+G4U3i9w560cY+cqKWOS1QGRCfXVYfX0fUqa0ZbhxFr594oI8yDVyd/3oZPFA+UUaLocqsS6lRZLn5N5fka6Td73szR7cg1jQ/SFvQrqGk0q1pvknzrMbou3cklNYSOAmXQ1Y04cm72/fpoHWnX3GERYJ4ovvi5vuCAZvIVX52408k99/BxP7qnSpwdI2LqUgf1jeOaRZXVYTvnZNZ2cG9cITmMshkp/nmG/j1dkRbywheaXe5/adIp1GV4b8R7B9KynfYx+W/mKOZ2+cbkDNIV4bRsxoP3a5TxCe6NPQVH0gfl+NQp6rllzdc5ajgai0+hWoA7zai7/pZ4RlKXq3lrx55Qqr5rTAmj8QzP2tj+jqCmU/Bv5lyaT7NoNs2h8+hCOnssCaPyVN/yqXidciGLBsxCPBbPdcqFfF60YcbH9nQ4bRmfwO5b6IEQ5ZqjOzw/Pvvk28H79dMrtBM69apMy1Ncp5vq2m0ryhv0Py6vaK76Fv+I/j+3F+HMCmVuZHN0cmVhbQplbmRvYmoKMTcgMCBvYmoKMzc4MwplbmRvYmoKMTUgMCBvYmoKPDwgL1R5cGUgL0ZvbnQKL1N1YnR5cGUgL0NJREZvbnRUeXBlMgovQmFzZUZvbnQgL01pY3Jvc29mdFlhSGVpLUJvbGQKL0NJRFN5c3RlbUluZm8gPDwgL1JlZ2lzdHJ5IChBZG9iZSkgL09yZGVyaW5nIChJZGVudGl0eSkgL1N1cHBsZW1lbnQgMCA+PgovRm9udERlc2NyaXB0b3IgMTMgMCBSCi9DSURUb0dJRE1hcCAvSWRlbnRpdHkKL1cgWzAgWzY5MiA0OTAgNDExIDU3MyA0MjAgNTEyIDY0MCA1NzcgNTkxIDI5NSA2NjEgMjk0IDI5NCA2NDMgNDAyIDU4MCA5NzQgNjU5IDY1OSA2NDMgNjU5IDY1MiA1NzMgNDcwIDc4NSA3NDYgNTQzIDI5OSA2NjEgODQ1IF0KXQo+PgplbmRvYmoKMTYgMCBvYmoKPDwgL0xlbmd0aCA1NjcgPj4Kc3RyZWFtCi9DSURJbml0IC9Qcm9jU2V0IGZpbmRyZXNvdXJjZSBiZWdpbgoxMiBkaWN0IGJlZ2luCmJlZ2luY21hcAovQ0lEU3lzdGVtSW5mbyA8PCAvUmVnaXN0cnkgKEFkb2JlKSAvT3JkZXJpbmcgKFVDUykgL1N1cHBsZW1lbnQgMCA+PiBkZWYKL0NNYXBOYW1lIC9BZG9iZS1JZGVudGl0eS1VQ1MgZGVmCi9DTWFwVHlwZSAyIGRlZgoxIGJlZ2luY29kZXNwYWNlcmFuZ2UKPDAwMDA+IDxGRkZGPgplbmRjb2Rlc3BhY2VyYW5nZQoyIGJlZ2luYmZyYW5nZQo8MDAwMD4gPDAwMDA+IDwwMDAwPgo8MDAwMT4gPDAwMUQ+IFs8MDA3Mz4gPDAwNzQ+IDwwMDYxPiA8MDA3Mj4gPDAwNjM+IDwwMDY4PiA8MDA2NT4gPDAwNkI+IDwwMDIwPiA8MDA3MD4gPDAwNjk+IDwwMDZDPiA8MDA2RT4gPDAwNjY+IDwwMDc4PiA8MDA2RD4gPDAwNjQ+IDwwMDY3PiA8MDA3NT4gPDAwNzE+IDwwMDZGPiA8MDA3Nj4gPDAwM0Y+IDwwMDQ0PiA8MDA0MT4gPDAwNEM+IDwwMDZBPiA8MDA2Mj4gPDAwNzc+IF0KZW5kYmZyYW5nZQplbmRjbWFwCkNNYXBOYW1lIGN1cnJlbnRkaWN0IC9DTWFwIGRlZmluZXJlc291cmNlIHBvcAplbmQKZW5kCgplbmRzdHJlYW0KZW5kb2JqCjYgMCBvYmoKPDwgL1R5cGUgL0ZvbnQKL1N1YnR5cGUgL1R5cGUwCi9CYXNlRm9udCAvTWljcm9zb2Z0WWFIZWktQm9sZAovRW5jb2RpbmcgL0lkZW50aXR5LUgKL0Rlc2NlbmRhbnRGb250cyBbMTUgMCBSXQovVG9Vbmljb2RlIDE2IDAgUj4+CmVuZG9iagoxOCAwIG9iago8PCAvVHlwZSAvRm9udERlc2NyaXB0b3IKL0ZvbnROYW1lIC9RU0FBQUErTWljcm9zb2Z0WWFIZWkKL0ZsYWdzIDQgCi9Gb250QkJveCBbLTE1OC4yMDMxMjUgLTI1NS4zNzEwOTMgMTI2OS41MzEyNSAxMDM2LjEzMjgxIF0KL0l0YWxpY0FuZ2xlIDAgCi9Bc2NlbnQgMTA1OC4xMDU0NiAKL0Rlc2NlbnQgLTI2MS43MTg3NTAgCi9DYXBIZWlnaHQgMTA1OC4xMDU0NiAKL1N0ZW1WIDU4LjEwNTQ2ODcgCi9Gb250RmlsZTIgMTkgMCBSCj4+CmVuZG9iagoxOSAwIG9iago8PAovTGVuZ3RoMSAxMzQzMiAKL0xlbmd0aCAyMiAwIFIKL0ZpbHRlciAvRmxhdGVEZWNvZGUKPj4Kc3RyZWFtCnicrXoLXFXF9v+s2fvsg4rK4fDKSA9vREMEzkERlYcKvogAEfCFCoLIS0B8oVIhIRKSIZ4IuWqG2jVf+c5rZURmZuY1U7Py+k7NzMoQzh7+a/Y5IHb7//7//+fzP5vZe+29Z8+sWbNmre9aAwFCiBUpIQIhL8QN8l95WHcZn1RiSUnPWjzHo0/CY6TvEeLll5E2M3VO2NjdhHg74zNDBj7ofcFKjffxeO+ekV246Nv52jN4v4gQcMrKnT0zIjR4HiH9q/F9VfbMRXnkBTKfEB8d3utyZmanvfPzmlt4H0pIdwOhwndQTVTESlWnCsAaB8xXOprMoWusVLSHSqBUxL8SQl/17h0Si3UcsJCJcTodCSW69vvSCvkx6Wa1kDoRkfTj78RYqSfvjVA83sf7K6qbOFrkOkDjovFw0bi8Lz5vKqD3ZVvVzdY+G8VGAmQf1tNLvqQbIS4ueheNSu+hcRH1pnKYwuqpFyRvF43p+za2LsW6Re23YQm5RXoTEuQZZAjwd3Swt1NLbq5engvB031IkKeHh+eQIW6e6XqkvAL17p6e7kQi3uyx+oI0GjnTk2AykowiUSg1N41LEPZo76J20di5SV6eXg4B/nrk1M1cAF/y1/Z4p1ee2LtpAG/1Hvxk30FBsZFWupjWq3eb4r0F1+aUfMlhwcRktq2K7atiO9kDYYLsJMXInkJ0nTyhSo6uE0fBeeZjOsHPvAhD+Jk9ptX1xcX1LLQZVGFJ1jHgzdzhMi9iVGFxcSGrbOE3LVDI/LKyrlj+UNbW7K76tupPYsPnSIssSeoA5JeApxcBFxBVauIRpc6XdSkbC3ew7WxwwHBaBC+bRomnYQFMy2ez2XeqP+u3XmvrI25jyex8VBRU0OVsyI27DeC/D2ewL/tJfUWagpIfSALJUDKCRJBI3ldXEdm7qV0MQY6SWuEAe3X3EFWeXu4enh4GlDQ4OOJFUmtREVCOT056lyZ4JL+rHiJvg0c1rXtrGumk4Ya6gQPEg8y/8AD0h8hEtptVsU3yF+4+cBN8f28nseOYRMMv/XJ8nlxoCLwPs1iDkMgaYFbrXk7DI34WH18qL78k75gwYdH0WSPCQ8u/WJ2cWl+47OCYsS8OWBaTMHdeObsePmbB1omRNAWsWMtTpfwS6pyO7lFfF2byVcslq1M3tYQIM3fjfQyT1delt4gzGYLyIBCgQTW3d7FVSWoiuGkMQQ4oCkntZdBr3EARkOBC1ZRrq5dDkH+QQevCRaEHd3AkKnrmfp2QJ39dB3uiA9mQ1/dkHu2pffXjcT5ZUfflMlpSw87o4PwzPZ1McfutHXamlNo6WDPPYDjE7EQDTIIBRewLtkF4QZhg2lfNHNsnjoQ46iLHBmZNDR9doO9fETmDrhWK5ZQRrJHlH2E3pfEzNFBaD31oJsSWM3oSnPPYTTRJQJxxtq9K+3GeCTiqHHBA7iCpNe5BkqOk4iMK0kh8Ys0rxHIE2Ls8OXCqpZs5LOwuzBo9QF7Kbqe/DOprgupBOzEETg+CM6x1YDAVwdt0RyiRe9GHpmNCeIMwxnSEPpBthOWmV+NLP6fTKq58PDwpso6ueKWQxU+akTQpbqbjc2u9o0D71vIxo/4NaRWnKpoqrlzBExJVqTgruvZn1DelV0kf0p8MQv41dgEuKGvzZLi4SFoNlzmfDtRHURkLvzUE4a3a00s4VA1s/zMOdpPinu03kN2Wt/0BQr3JRqysN3WXrJipanoEMBNsXFTBQi/Orly+Q7CXE2vLsk65OR6puAAAQialNaaiFPnM3Iid+WWBJUKvGlPwi2mqzVeyit5BsygQ53Yb5HEw8SZ+xMBlLKkVIQsayWyHHLkdeiJbrlb2KFJw90CeVV5mVqUzhe+a7sD0EX7yj+3w58JN1jbV+VWmYtW5Nm/xQhtV1YDBVPLiK7dbreBV+MKmF8tnU0eAw0fNsw6cpAdL568/+EJCdCNUseiHoBo7WwMl9FTZ+ZJzZXJMme++8lrmuXh70sjV6410UWF56apX0NKktt8Uc6U0Ykvc0F676d0U4xtkg8bYwREXgBCI7KOg7e0cHQIcggx6MbdJXMLOFi+DytXXrs4Rmz6ZnLSiPjl58qTXq5KTD52trWkHzdZ3YBfdbnp+ZXIiQMGCz49kZsG8jAbsb2r7TeG8mEXseX9aQ4BOo+noVE89PKibpEbNlBx5d3yW9Z+/cwGqj6sKf9w8fQZAHkTBjyfehqhV/noYEjRtRXwsWsN0NlUe8s9PJyesA0OAL/SGlewj7WD/5BgsSasy+Qrwbb9Nj6vqsF/iIbkpvQZogvg8aCRlZPR4WBb79tixT0DLfgZPj4Qw/x5uMJau2AzdR7BDm+UtOb6DwJO3tYsQ6RaOQZGYxtMiILTPNm6uZiLAPkBxZo44QK10qwmChq7InjCx6bf5UeOamsSiazkJk1yW/gFZQJfui54AkJpWIVfQNTAsZWaNvFqM3fX58BHpV9kIywztwd56c5+sxYlBlXHQ2Ji9pFYyy0mP04Sik9LeNIK6Zc1r641yS826z2HWjC1bkxITk7Y2Tk+hz4HtPzYArK9jv7PHGzfV14Pqo+ycrMyTJ7OyIC9f6euGGIh9OfC+wAUnAc2aveSFPWks/tnRi3eF41SLgSbT1Klbj9Sv/fXXla/Cuje+u7hkMXw6JnL5gkkJDvDnnpRZsHBXBhjXQ2+58Z3Vr7UGr4uLnZy4mstwJ57yUe8EjiUCNDubpLTHbyF+6YuevRxtsJq4EE8yQFnxFl8Ettw7mW2yJkhZMShqihd4ygEJWaKzUbYzmvZezmVfgmEtuLPLMRWFWbkFa7Pq+voIN+k92a5rkZ5ruVxejgYzAF4vw+WTX8a2xJYVZ768tO0XUcO+PTMpiY2BUlasqmQlUGIqhhI+Bh/2q/qStJV4EeLoznkz8DXu6cV56/SbNmqLC3EXKHj60C8rTF8LE0TZE668t7jwn2tK4Pu6hY2rC6BVthaEbNOuu7QiLkxef3mLHKZf0Q4/GgdAnPFoYcZbq/O/+3Dq7ioju5RoZN0+iI9+AFcZWrQIVEfSh/2ivixtR7nZkWeIB/Ehvl0kR7SOVI3Ckp4Iy8ImQh7uBfVcqPSKmF9nOl4nB4PHuvrJ6TVT5+hcpQbTcWFE2xb62vDQssjIyfT91pIcsb4tlRf4QnZftEh4CPuozUD28GrrHHHB5pXxMWwW2wHxYnx62pisRb6VlexIeTk7Vo5o2bbdVW2S9pCelvn1Q187kozmvJolZuYYTY9d0BMz7+Wi02sEjky4hO0VzMaNrKeXQasyq4KHckHX+5PPc/Uu7sJzdW3VdWeNpXB0Yx+t/dg4J6dBbQzN/RAxr636SWltWJs0IyxuZpKqrvC1dSWrXjPdz1r8xpJ1qmuZqT4J0W1HR4yYwC4tg5yotX2dK+I/hBYYQoO3bWMXtm2jjxobTdb+D5qd+74HEJr81sFZhzaHT53/VsZ7BAQ9uyZmkhau4R6Cm1bM3F65tEW+S+0RXTujlleg5jijTxuG4ycQpGAprsy2Wi4BF648qDBe7lpPD5w+qXP6UDJqLhKOObhB1iA0CaCtMcnzJvRjt+Y3+hj+k3NRkFiGzgNWxslfDwyHZ99KNe0AWFajf7E8aZ6Tt3R5rZ/P8oSPumnrZk10dDpXVUUn5o2M/fIBW/tDaAiMpmMrK7dUV5juMo9hkdcgIuYe7Kf2zv+52DpQXHto7wtzhabHS94M0gOVYuM1QPs+ky4ltPqJtQj9URP/VKdKb6MmuqE/7LJ+vbiL4ygjyDJIyxKhgoOjopQqHL+Do60YI9jVM/f6hOK614+zn/oHQe+972+JC3sE9l66bW4ecGTYzg076WkOnU3+7JOwcYtf3aA6+NhYv+NyadVLbE9o9Nu33nwF7MDXePKc06kjNfIP7HJJtcqqLVHcdoD959eUbLBFa3cC2a3GCMeaewXg8UBH/CFoFOdj4wHVJ+BQa2XF5s2/fX744IzpwBroSPljqefixT9ee+01oa9cG/fiW+AD3B7weMsD2+uhxCIIn9DF4DCpx7p1rNe6dfBQldo2evt28YPtWJF4t0uIwD/A1eqt4G4PRbMV6G0BDUEOuCy1HSvVHMV4C+9CBSrxUeYpZJpqQZ7TZGWzYWmpKWGCYByfXrYsboYwfjPGYrTb8pa1m9kZQw2rZqCaMMcRYA2EitLcZckVRaEsE0RmIoou/qK+h5ZYSwZjBDABeUc+qBm/dMyXAIiq3HG6VIrx5cXdQ7IXVYpSeoF/ECqkKzciNviBQYNm2i5A4KBRqBIaF3xzGgJHeLNPzt9ix4Z5wNDLH8ab/CZEwz6T4TpbC61Mgt+ZNdiCH2Xn2L2akGB3tU10hnNa0ikMEq76B/9OG5Lr5IcvbDpGF1fVsutn6kJfHDtt5+HC6QNzN30JbixHbaXq7ziopq8Tu1PKzpayg337909382BlMKdbN6PgLNWq4DpMz2Krtw8LK4Cgh0w3lRXde3snzhsCBNFT8iLPKhErDtWg91TcqZ6DIAd7DvpxYkQnUywcPzJyJIwdv/rMBwd/O4PubkL0BfYP2vwufHw4J6uwNHIM7PrsNXSmx6orKr9hW0U+07uYIB5Cr6pgLI8u8MDe7MUFuydO3IsjCChAkPBS27+XLCpfdet8gWry5FfeSkqMjXtt7dRp9XK69MKHF2vWtbK7jdsOwMDyKdMWLTq3Nz0V0jM2mtGJQMQ0jB15uPg0IBGI/6SCsRyCxJ+OcBeqXSFz3k75jBj7n997cw3uhZLwEWMVDQY3dIeIARFIiz5sXDNLOQ+9XCRVtz7wrBjbtlOMNd2ZERofKfThY7RpH4qx03uI0nVKXEXAQSV6SGpXD3fBUwmaggyOPHZVzPQOKUO+Lft9BkvhO3jLz+a0nMCSH9k5rSpIfDMtIozuhtutL9MtNbFz6iepBtTKX7HI4zbd7AqDrHqD1slhxerG2nF+EmyB23Bq3MLt8etxyDbojc9J2Wh3nDkPHVZHoGpJ8OTda1FnEWxz7eXmhk4VP9poKtl4CMHZ/kEjq/wHg5BF61NMn8gLJb/HZ8QLphKhhC41FZeXi83yxQ+/Z39GjD15qgmK6WbnqY3xTqylFv2vO/aYydrVmdJ6pHSWWDpKWUkd/lf/dJwY5MKXibvgZvFdHVGlmT9DEHfS3Ad0+joVUmClelTbZqilV4WSHj0cf56/0tq2es6K3t1U7CW2fnAEjMUgLGtRaVmph8dP34zwLQqBaTBvCHvAthw54R8ILbSPfFOO4WfxpHyT9mkzcJp+Z/KOT5T2ljPTZXZHGjvZERo2vM3cH4QYPoY3qye8eyZh2IgZ03V+5eFz4PYz02qG+LKUiOix41qPteKPFv6OP64BfdhvGAMtxpnQKLGzm1ZNeOQM5qyFsOXAgct9YRQNHTlAfp/9m30rb8WIMRcGC5+3+ajLfOWfbsyKRZW7xfyZMSoBkqiAuEaHrZ6XduHaHEHGkklkGplNiIq7EJ6B6JKd4ILk2QluqTi2x8O+I2bXWPxlABpUbq46P9Nru+CgjnSGoEwKDYWyP45+M2kcOwgbQvU1g30FYI9j6tofJF5lZ9hvbPhz8p6qMpOp5ubN6VOhR8Z0+HhcvpXNIv/EiiI7OkfosWJW7dxM2NS6O5rqBwWWjRwWQAPafMGzcdOGcPbiiKH5hdOSSiYuGPpK/NTc3LKsrBEvji37vnZeRk1R1cFJ4UKoZ3/4vBqKWEU1S3tOlxzu2k9efxEEVWy8Ncyj1oP674BZu96KXba0rAxuTkkakZ3tVFbWNic8fMXBaZOEndG5ixOKcV6ut0eqnVTfoW724CvTopHoS65LgTva3HeoytvcVd89zjp+HBLFxrZkM5r8Wf1AelPRZw8lPxTaRZv9cV3zQFvLtZYjS1xcQY5EUHEnLqjN+RKOXYg2wAzV0FlgaC4MFH43yiFG+aYa1vdQsz13dYsOrNjls+NUw6dvL1wYFV3Lbh1UFckhtOmBzx0wDhvKFl68xLZ4RsMb1/bKF4QsU41pLxSCt6BiGWfpcNPesnKhu25kRL9nSvLBv1vP5U1wbwhb+SsIxbWhbBCTR7EJsE+8OYq99DhkDNjDNLaG3RgwGtVsv9ynosJUOGbU+IiEYFQp4st+VGdIg9CC9SPuZvyMtoJ22A70aF6uHUrkotE8FXI4qHkF4bJ8xO0rfdhLgwaANP1qxY4e2p1ZxfI+OqGjtF6kw+TTUu9u1P8uLWYp7H541KErF6CSnnx88heQwtKsYSHkyaWCNZ94YQmrhEJTGRQd32emcT5tkc8RiBtseW4QLNAADQyXN7LlqeKcZFTPmDGL3tnYpnmWPQwaDoS2jZN/EdHPJxSsHGGqyJA/ZNvDwxHL5tElue3MFu5zLOCKWOAKRl/PoacagHiAo3IlsNEH2GE3AV0iGZxcNKMUn+K6oQIiOkGxZdSZutpSNgI+ERqw3n25335qHRPMXA4Wy/f6j6WBk+XfxBC2XugNS1vvjZ20deHmDSsrmo3lb2+nX+8Cj+q9+95/X66vZoampMjf4QAbxe6H4PqCXTSV/fQvOMdq9F7Mj5Unwly4Rh9+tr34q/fN9ofnuHYh7wMxHlMgs61KCRfMgIV7I9FDh/7Aswum4grdB8brtzkNroNIU446y3SKHpKj4DX4xs2R2bM3WMi/8z8ZNEyYNCzcGD01WfBpaI1tWAp9qU+fwxvZgcFCXm0tO1rDpvWwjU6UrCGHPToQLS2fFBebnOfHSm9eR7n2YtfU96UkXE9/iWm1SqZIY8m5dnLpLnCo767VdngAmKqKMbZdMaYaXbzXg68pT11q2kFPyEOgBFp1TvI+1sQSP1h1tv9QCJsfKOrarpiLlGQ6FhPDLvnOnf5oME2urDxRzu500yREUSsRDC3GYZHfwn5gu3fDVY6E5rffEKYiUsGINojnznluA4+gQCX2tzcnOiRHB+Ww45jPa37NP2/AYP83DxuGwLLiA5VLltXPCB4GA33WHgoPheJlze+t+GVebaiPd/DYcZEZbyQlDv7XCwDe/SPCPTyHjhk7Lts4OQnC0Gvg7KLNeQe9h454Kh7ERrBVNIr7Sq2tgHpGFEfphcbd4CE4aNXUS5K2VP35fcXpL26zwYOGQ8vOI6Jco+rBdEXhIfnTYMt3MCV25Tv1G1ZIC5lRPs+OsvY/l8s32abm4RNvgz8MpMmyzSvD2NnoQfqGuIWqnNbM0kviy9+wi4kQ8A3XKx27i3r1LHLlg1yZNV/JRNgLPEIT+YKwpMW51dOiB7EFXDV0zBx2yC8KBk5N0rBM1bHjkN/A/oT+UBTpwiYyho55vksEvII4/JcNfenQ07JBED+Dsa0L2cvwIdvCNo6cCENhJGhodq2RLali89mv56Jmj6344vvaoUklX4MW6tgjWAT1uXPkj9nnvwHaMdruLz+C16U40htXAtEGKiF0566K1kaZND1OrlYTYHRzNRjc3d09Aw2ubt/lzj81MWpi5G1oUl0IdHcFcHUPDHR1c3dtLWO/vbEO3Pb4QYE4SkG07TfEQx1ZQw/0s+htFayMzoC33xXR8lyRowXRnlm6GKC84sbFvCeYtnraDKivl9Jk34vweo3Mbm3ZCgdgwKsKrN2VkZ6e0YArSIdR5XUpAFfQM6Qv2ucn+O7J7oglg222ykF8uwIGqrZtbqvffFStk+0iJydsZqtYhFsEHQKVpkrV8bZ6MZXFJ8AemJzJ3qUFpvKyCnVIdXy8fIRS9vmXIQm/Q2Z1226+qUO3FH7/fcXP3EoGt89Xn5A+JN0QL9vzqCHIxRbdIOdEyaVog2xRNQUz1A0We9/+4sDpC/RoS76/emDLufsNB7fu3bwNTq9NyWiI6QGf0Nxw+UsWUac6UlfHjoayJPbCOLgE5bQs9tXtU2u5vP3bHdXl0mTihNgWoZQLVz9l78HF4pKUvQduKGhgoJAT2uavWh4DSzRaW7bj9KEemhv//ESj6dGaN4ptVv3Q6qoaL5+l29aamtnzj1mzFJlmC4dPQQz9yOSwFr2/E5PVzdJBJZfkidYqWNkNschb9VQygpssOwu48g/Su+gFSzWNxcYq7p/zdV+4Xyn74B/0WV4zflL5tPS+rrRJ7MsWXUip76l9OacA5NYTqr2VbXMqA2nKQP/yCANNazWKVrIPPS/+m4UbDMFwmPZ2b7vQ+qL48oGaxGjWXMJ++AkhUVR8r9KWEvBmzUeOQLBApkwOWbC4pIStNfKoZg1q6zMY33ngejAnsW1cECLqNIEuSoynRGIq+45lInmt+ceJf8yYxqa8tBQWsGtb1qw/1bxoETu5bdbMWuPj78tAWAox0aXguRns2iH7cGJ6xjvsqwTRNjWt9uyKEohDNOGEuPWeNFrBEv0RS/gTouy6dNFTF0VOZnnhQeBJaqsj06W+N3Ew68OajOyW/Afakm/BW35eyJPvG1X3jPJ9oVC2xeB3MrWV75tL26gOWhMX8SaUy4vpKnbkz5BR+6Ff9YVowWjKiL5Qzb4QPC5fpsGXL8vNly/DdGWPKLPdSz1V0ii5EHclGYGxCE81KSrm6KAXTkECeLa6Sg/Zm2z1hPGf5Vzoqf3s9UPCv77+vrH50R1Z1zzhRZBmz3AE4TBHVDwiWCJtIkFkNBlHXiBxihZxWC65WRpFrG5vIygpA7dOgOWv7/JUz7eaA3jWy7KT4mDOeGl4ikWjwpPgA6dqauDtsTMl29iosXDi0NABdY2N4bFWNsl+Y5qPDR2wceNGONkoHFt7rGB9N211Qta2ykoWeOKEXNXcLL0gkxJZPCqNGdUbhBn08mnWk92I7P8T7D8th3wK+LxXAt19E6OSy5H9W+HdphJqkkUh9vGEC4BYvDfQHKms1U8V3NqsonIxLRXlEnNe5Ve0WFuVyEXZW/XomHDLxlrHxCtb03+JWnhEyKMWN4s80O2pOtSDTqWFCDjgIyPNkmsorUHTVSyXGuVK+aNXV5lMxqtX8/NVMD8bPhubbWWbPjSlrKS7kCf4m06by7VL0UIM3D5W2mjaHX2pnNVCJu3TzxVulPEcdxkLc+6XNqyvs7zzKzWNTLKaRa3cXRuHNDVRehxndSDGulekwUpk4IPWIUDJdinz1Ll33NUs4By78H8V0Lg8BZnhRANjtNx0RO1jOkQrQWKtZ176zNr27cWLoa2KlsE9ZicvgTvMQcxndnCvrYrTrJ36VQi9rlRUXDE9rGBN3wOlEZOsVdngWcGb4IVWMhNPboGI3Lq3RyhZAZ5p1pstmaNlE47PhUKZnTeG3k/Pi72SKPivONxdqJGtaIt8vZJuMxULpayGFVvbCH/QBU7sLbZCqDQV0p2V8g+0VZaEypYY0Z26yj/I8dRZvi6exueubf6cDqsp2hZFH1QXb7BWh0ZZ+5Tb9txUXC3bjtlWVFNMN+/AH3z0Lv5Ql/qiLt2U3kZLMpHEkgRCntqo7dyuVZSnC/f2SPOoVmsxKaAkW5W8DEIWLyV/HuQpBHl0qpaREjYKjrIU2Ci3UCt+rYEzZ89Ws4+ghVnReHlHDSPMOyQr05nlQR7LoDGsHIo811yEU7AU/nTrx/RsEgu/n7/RZXDtnLLEUjELQvFrpUDEzkV4FO9c1NTELhWzLQZ+f/o0nPyj/jL0WwvN5eXMr4hVsl+PgZVt3HgQ4Ot3FgdH5Ru3w3D/1p074cJOBev/qj4teRAXnFVl5yAAw3kqUJU5b2pAB8y9o5K8xNF7ISpRxmrQKPscDvC+CNsEkX7t5ODC7tae7KFtNv7D0aGXfE6T/QZbPXQ45M5P781ic4SgYZv8x7w6yFc68/iS8N3+gwf3y3fZVnZagh4TMhwBDoIOKtncL9nPF8Mir547AomBbPTdP25FjG5q/gjjunN1PB3njtj2urRB8QbeyLGSadAoe1lK7KY2o8jObGvnInn3zWsFTnIQPb2Rnq6Xv7Avh1pqdHOTx7HUh8z5OT386+IvG1TJ8mnq32qi/nid/3PN1hbBii8EU3UG++GrT11HpQR8+9P44ZNCP3gHRHqbOYFS0L/bsm/VLWihn0Ub/SJJIjPJXJJr3r9G5eGJeUlJT3G2qBKT2HYmT8wpl86MviHITa+17M7Zm9Na9maQwBM1Ko6KETZ35FgsmzdB5gSYasjGAUE0dXnAl5vawgb8semwPHAMOO3cHOjj23/Y7bYx4DdgQLVLP7gz8c3sgsRlK6+x7Tp3cPvivQ9CQ647oPWHElYScmR5Sk5jzcFfPf1MZ1mqhPFzjx7uWza6t26sqq2IZimDnqd5xbnZg4anp5l25ienFCdJm5yObyvH4Knx+9VJozd8d31b8KhDd8AJcsaFDo2EaHn6hBjfIYaXP31DH1AxOnLz9JETw5YlTp0yu5Tuho9YaOmSUavS89JfuQ5OH64ZGvbqp6VD+jixyezf4AY3TIVhoxdsGjdGFRv7+mLvgYvXJEbnLE98WcGyv6kvY5Tdj4SjXxhvXs08sLDVdMABfVcf4fa3Oa1O2GXJadkr4MtF2Aj1zNeRtfmFtIr11aZSOFNNbeQHsLFajq82lSgpq0uXzCmr5pGLrWyyhyVXFNlJJ0ylQrE12qkd8E8mG9ne4WEQQFcI1vLRES1nz5YzeWphoZBjzkotZy8/yUq9fU0QVC9Mtp5DbQb13yEYGGsrZue53nu2a9Q/SALaYUeOk7lKmxG7xkbl2rnFoSB2EIV8eWDDD+pDbB9rPbq3h/1/Fta0hgh75ZPUIEaY7lSpUo2tB9ivQKdM0QBsUtka5b1MMme8xQSMWu2U/XibrjlvHvs4igmfPH45Ng4jkOJf9qdMB7oA4iEl5Q15lRh78Az/B4UfsZWe8iMxQIwlWp77pgg29DxXGwQBYM6BB7Dule3jAobqV4ZPYtEXwcVJJdmCrxjbpmYNoNnhCPWfizGmj6f0HSaEEf6/gVj2f6z6YEbvkD/4Pwr+9ccjNbUJ4whAzN3xw2+sFsq3Cele1D6rfZbapLTU9TdGVUPeF/eQffAzWUinKy17Y7HG0heLDksMFmcL7azqS9JQOtNoG/FVryC7VA54X0HSqAvZafnGB0sfLLZWRNBbvu0j3iAnaDIJsLTvjH1mqpzJLqEX2SUGkF74zMZSMi3f8/6uW2hfc3vE1XLfS9hH5uM1ldejbu3+vC3LN8FY/LE4YR9r+LVLm5yXgVjcLbz2sdC2lm89xfvITwjh/6loh4hkDB4HyC1IhfnwAw2hVfSu4CbMEFYKR4WHohfO8SrxK5WbyqhqlOykudLr0jbpnjpbvUF9Tv3QqrdVjFVVN5tuw7pd7vaoe173pu4Pe8T0aOjx0NrPutj6XE+p58ieK3se6/lHr2m91vd60PuZ3kYb0WaKzTHNGE2D5o7tO9o+2onaPK3RPJfIS55l6v86j/w3hDZ2PvfvrAMYu/tbaIpWOsxCC7iKoiy02KWOiliTGRZawph0noVWk5WE5+NxafH/KSRMoVV8twa6K7TU5blaed5Hoa0U2kehu2FLqRBsoYH0hQYLTUkvOGqhBeILJy202KUORkLQYqEl4kxtLLQautOBFtqK+ECUhcaYWjBY6B5kjDDKQluTIUKFhe5JjcJxC92LxErJCt29y1h6cP6lHQpt3eV5L05LZp5tOP/SCYXW8ryqdF6h7brUt1faua3QDl2eP6N8ax7Xs7yOWlLo57rU6deFduf11Q4K/bxCu3PaSkR5Wqn9LXSnPJEWiJM62EKLXep0yhNpifioYy10pwyR7kbs1MUWulOGSHfK0KqLrKy6jMu6y3Nri9y26/z9/IbqJs6dnZ9bkDunUBeRm5+Xmz+zcG5ujq8uLCtLlz83PaOwQJefVpCWX5SW6vukatLMqLS5sWnpC7Jm5v/l6fOWxwlp+QXYks7g6+ffWUWp8ZcPdHMLdGlzCzPS8nUzsa/0uQWFaflpqbrC/Jmpadkz8+fpcvmbLrdz/p5p3dwcHTajm5QztxC/jyucWZhWoJuZkzoIG8hVOpiduyCnMH9uWoEviUY8lE+yERllITWLLIaeJI1kkhzyE8azhfg8h6TiOZ+kCnXCHuFfwodYDgtHhB1kO8ZI/ohQ/chQpCYitpqN9XJJAZY5+K0O40Leep5ynolPOPrKIb74Jgz7y8JrPj5LJxn4rkC5S8NrGl6L8JyKNf+uVY7jovD9XIwV0vDrBdgS5/B/rqv7S+0EpZ8CC086YsDe/HA8/93Kkzb+Tz3MVUbB6UIcE29fh2/N40pX3hYqT/nYdEhzqaTiXbbC0Tx8ltv5zd+/nfP/JGnOUY7SFudGRybh3VyFB96/eX4LFZnrLDM9yMJBbpcRzMa7Bfi2UJktXtsX7b75WapSh89fIfYejN8PIguVwxf5/iufvkpb2VinEC035zZd4TcPW1j8v2llzlM9dbTArzlYi5+TlBo6RU6L8bpA0SHzqM0zMkeRRqEySn6fp7SVrciiQxqzlG87JDUaZTUBtdT8bX6XN3nKiFKxl9lKi2YJL1T6mo3nv+/XfM/rzkb9W6CMxqwDuXhOVd7nKZq5uHMuzH3NtbQw29JWmnL2VTTv6XHz91kK5Y1f9Vc0MRvH1dHT33GV818t/9/L6EnrqUpL6Z0r2Kwpszv18O/H/kQ3n+ZrWBcJ8JGYx1Ko9Neh4bx981hT8clCZeS5ynr5+5Ga5TzzKZmmWTT9r/rOpcr1cIHyJee2SBlNWmc7vGYW1vifZ+j/z6oY1DmKgi7WmtvruZ33/8G7rpY87SnbrVjvp97nkMViX3GwOF6MFIfjeehTLeXg99FYr0iRZw6+CcN3+RYbMHPGzjW5tZ82fN1x/S/L+j9Z0KdqxjkmeaUdnjd7gX5KTHq32pgXs+JaCPlf4pfl9AplbmRzdHJlYW0KZW5kb2JqCjIyIDAgb2JqCjk2MzMKZW5kb2JqCjIwIDAgb2JqCjw8IC9UeXBlIC9Gb250Ci9TdWJ0eXBlIC9DSURGb250VHlwZTIKL0Jhc2VGb250IC9NaWNyb3NvZnRZYUhlaQovQ0lEU3lzdGVtSW5mbyA8PCAvUmVnaXN0cnkgKEFkb2JlKSAvT3JkZXJpbmcgKElkZW50aXR5KSAvU3VwcGxlbWVudCAwID4+Ci9Gb250RGVzY3JpcHRvciAxOCAwIFIKL0NJRFRvR0lETWFwIC9JZGVudGl0eQovVyBbMCBbNjkyIDU4MiAyMzkgMjk0IDk5MiA5OTIgOTkyIDk5MiA5OTIgOTkyIDk5MiA5OTIgNjM1IDU0OCAzNzAgOTMwIDYzMSA1NjMgMjY0IDk5MiA5OTIgOTkyIDk5MiA5OTIgOTkyIDk5MiA2MDcgMjkyIDk5MiA5OTIgNTgyIDYzNCAzNzkgNTIxIF0KMzQgNDUgOTkyIAo0NiBbNDU5IDk5MiA5OTIgMjY1IDYzNCA5OTIgOTkyIDk5MiA5OTIgNTgyIF0KNTYgNjcgOTkyIAo2OCBbNjExIDUyNSBdCl0KPj4KZW5kb2JqCjIxIDAgb2JqCjw8IC9MZW5ndGggODQ3ID4+CnN0cmVhbQovQ0lESW5pdCAvUHJvY1NldCBmaW5kcmVzb3VyY2UgYmVnaW4KMTIgZGljdCBiZWdpbgpiZWdpbmNtYXAKL0NJRFN5c3RlbUluZm8gPDwgL1JlZ2lzdHJ5IChBZG9iZSkgL09yZGVyaW5nIChVQ1MpIC9TdXBwbGVtZW50IDAgPj4gZGVmCi9DTWFwTmFtZSAvQWRvYmUtSWRlbnRpdHktVUNTIGRlZgovQ01hcFR5cGUgMiBkZWYKMSBiZWdpbmNvZGVzcGFjZXJhbmdlCjwwMDAwPiA8RkZGRj4KZW5kY29kZXNwYWNlcmFuZ2UKMiBiZWdpbmJmcmFuZ2UKPDAwMDA+IDwwMDAwPiA8MDAwMD4KPDAwMDE+IDwwMDQ1PiBbPDAwMzE+IDwwMDJFPiA8MDAyMD4gPDk3MDA+IDw0RTBEPiA8ODk4MT4gPDRFMDA+IDw1RjIwPiA8ODg2OD4gPDhCQjA+IDw1RjU1PiA8MDA2ND4gPDAwNjE+IDwwMDc0PiA8MDA2RD4gPDAwNkY+IDwwMDY1PiA8MDA2Qz4gPDc2Rjg+IDw1MTczPiA8NEZFMT4gPDYwNkY+IDxGRjBDPiA8NEY4Qj4gPDU5ODI+IDwwMDUwPiA8MDA0OT4gPDVCNTc+IDw2QkI1PiA8MDAzMj4gPDAwNzA+IDwwMDcyPiA8MDA3Nj4gPDRFNEI+IDw1NDBFPiA8NzU1OT4gPDRFMkE+IDw2M0E1PiA8NTNFMz4gPDdFRDk+IDw3NTI4PiA8NjIzNz4gPDUxQjM+IDw1QjlBPiA8NjYyRj4gPDAwNzM+IDw0RUU1PiA8NTNDQT4gPDAwNkE+IDwwMDYyPiA8NTQyNj4gPDdBQ0I+IDw5QTZDPiA8NTA1Qz4gPDAwMzM+IDw2NzlDPiA8NEU4Nj4gPDUyMjA+IDw2Mzg5PiA8NTE4RD4gPDkxQ0Q+IDw1RUZBPiA8NTM4Nj4gPDUzRjI+IDw2NTcwPiA8NjM2RT4gPDUzRUY+IDwwMDZFPiA8MDA3OT4gXQplbmRiZnJhbmdlCmVuZGNtYXAKQ01hcE5hbWUgY3VycmVudGRpY3QgL0NNYXAgZGVmaW5lcmVzb3VyY2UgcG9wCmVuZAplbmQKCmVuZHN0cmVhbQplbmRvYmoKNyAwIG9iago8PCAvVHlwZSAvRm9udAovU3VidHlwZSAvVHlwZTAKL0Jhc2VGb250IC9NaWNyb3NvZnRZYUhlaQovRW5jb2RpbmcgL0lkZW50aXR5LUgKL0Rlc2NlbmRhbnRGb250cyBbMjAgMCBSXQovVG9Vbmljb2RlIDIxIDAgUj4+CmVuZG9iagoyIDAgb2JqCjw8Ci9UeXBlIC9QYWdlcwovS2lkcyAKWwo1IDAgUgpdCi9Db3VudCAxCi9Qcm9jU2V0IFsvUERGIC9UZXh0IC9JbWFnZUIgL0ltYWdlQ10KPj4KZW5kb2JqCnhyZWYKMCAyMwowMDAwMDAwMDAwIDY1NTM1IGYgCjAwMDAwMDAwMDkgMDAwMDAgbiAKMDAwMDAyNTUxNyAwMDAwMCBuIAowMDAwMDAwMTYzIDAwMDAwIG4gCjAwMDAwMDAyNTggMDAwMDAgbiAKMDAwMDAwMDM0NCAwMDAwMCBuIAowMDAwMDEzODkxIDAwMDAwIG4gCjAwMDAwMjUzNzcgMDAwMDAgbiAKMDAwMDAwMDI5NSAwMDAwMCBuIAowMDAwMDAwNjYxIDAwMDAwIG4gCjAwMDAwMDg3NDggMDAwMDAgbiAKMDAwMDAwMDQ2NSAwMDAwMCBuIAowMDAwMDAwNjQxIDAwMDAwIG4gCjAwMDAwMDg3NjkgMDAwMDAgbiAKMDAwMDAwOTAzOCAwMDAwMCBuIAowMDAwMDEyOTMzIDAwMDAwIG4gCjAwMDAwMTMyNzIgMDAwMDAgbiAKMDAwMDAxMjkxMiAwMDAwMCBuIAowMDAwMDE0MDM2IDAwMDAwIG4gCjAwMDAwMTQzMDAgMDAwMDAgbiAKMDAwMDAyNDA0NiAwMDAwMCBuIAowMDAwMDI0NDc4IDAwMDAwIG4gCjAwMDAwMjQwMjUgMDAwMDAgbiAKdHJhaWxlcgo8PAovU2l6ZSAyMwovSW5mbyAxIDAgUgovUm9vdCA4IDAgUgo+PgpzdGFydHhyZWYKMjU2MTUKJSVFT0YK" style="text;html=1;" vertex="1" parent="WIyWlLk6GJQsqaUBKTNV-1">
          <mxGeometry width="241830" height="30" as="geometry" />
        </mxCell>
      </root>
    </mxGraphModel>
  </diagram>
</mxfile>
